<?xml version="1.0" encoding="utf-8"?><svg viewBox="0 0 800 800" xmlns="http://www.w3.org/2000/svg" xmlns:xlink="http://www.w3.org/1999/xlink"><style>:root>svg{display:none}:root>svg:target{display:block}</style><svg viewBox="0 0 32 32" fill="none" id="instagram" xmlns="http://www.w3.org/2000/svg"><rect x="2" y="2" width="28" height="28" rx="6" fill="url(#aa)"/><rect x="2" y="2" width="28" height="28" rx="6" fill="url(#ab)"/><rect x="2" y="2" width="28" height="28" rx="6" fill="url(#ac)"/><path d="M23 10.5a1.5 1.5 0 1 1-3 0 1.5 1.5 0 0 1 3 0Z" fill="#fff"/><path fill-rule="evenodd" clip-rule="evenodd" d="M16 21a5 5 0 1 0 0-10 5 5 0 0 0 0 10Zm0-2a3 3 0 1 0 0-6 3 3 0 0 0 0 6Z" fill="#fff"/><path fill-rule="evenodd" clip-rule="evenodd" d="M6 15.6c0-3.36 0-5.04.654-6.324a6 6 0 0 1 2.622-2.622C10.56 6 12.24 6 15.6 6h.8c3.36 0 5.04 0 6.324.654a6 6 0 0 1 2.622 2.622C26 10.56 26 12.24 26 15.6v.8c0 3.36 0 5.04-.654 6.324a6 6 0 0 1-2.622 2.622C21.44 26 19.76 26 16.4 26h-.8c-3.36 0-5.04 0-6.324-.654a6 6 0 0 1-2.622-2.622C6 21.44 6 19.76 6 16.4v-.8ZM15.6 8h.8c1.713 0 2.878.002 3.778.075.877.072 1.325.202 1.638.361a4 4 0 0 1 1.748 1.748c.16.313.29.761.36 1.638.074.9.076 2.065.076 3.778v.8c0 1.713-.002 2.878-.075 3.778-.072.877-.202 1.325-.361 1.638a4 4 0 0 1-1.748 1.748c-.313.16-.761.29-1.638.36-.9.074-2.065.076-3.778.076h-.8c-1.713 0-2.878-.002-3.778-.075-.877-.072-1.325-.202-1.638-.361a4 4 0 0 1-1.748-1.748c-.16-.313-.29-.761-.36-1.638C8.001 19.278 8 18.113 8 16.4v-.8c0-1.713.002-2.878.075-3.778.072-.877.202-1.325.361-1.638a4 4 0 0 1 1.748-1.748c.313-.16.761-.29 1.638-.36.9-.074 2.065-.076 3.778-.076Z" fill="#fff"/><defs><radialGradient id="aa" cx="0" cy="0" r="1" gradientUnits="userSpaceOnUse" gradientTransform="rotate(-55.376 27.916 .066) scale(25.5196)"><stop stop-color="#B13589"/><stop offset=".793" stop-color="#C62F94"/><stop offset="1" stop-color="#8A3AC8"/></radialGradient><radialGradient id="ab" cx="0" cy="0" r="1" gradientUnits="userSpaceOnUse" gradientTransform="rotate(-65.136 29.766 6.89) scale(22.5942)"><stop stop-color="#E0E8B7"/><stop offset=".445" stop-color="#FB8A2E"/><stop offset=".715" stop-color="#E2425C"/><stop offset="1" stop-color="#E2425C" stop-opacity="0"/></radialGradient><radialGradient id="ac" cx="0" cy="0" r="1" gradientUnits="userSpaceOnUse" gradientTransform="matrix(38.50003 -5.5 1.1764 8.23476 .5 3)"><stop offset=".157" stop-color="#406ADC"/><stop offset=".468" stop-color="#6A45BE"/><stop offset="1" stop-color="#6A45BE" stop-opacity="0"/></radialGradient></defs></svg><svg viewBox="0 0 48 48" id="telegram" xmlns="http://www.w3.org/2000/svg"><path fill="#29b6f6" d="M24 4a20 20 0 1 0 0 40 20 20 0 1 0 0-40Z"/><path fill="#fff" d="m33.95 15-3.746 19.126s-.161.874-1.245.874c-.576 0-.873-.274-.873-.274l-8.114-6.733-3.97-2.001-5.095-1.355S10 24.375 10 23.625c0-.625.933-.923.933-.923l21.316-8.468c-.001-.001.651-.235 1.126-.234.292 0 .625.125.625.5 0 .25-.05.5-.05.5z"/><path fill="#b0bec5" d="m23 30.505-3.426 3.374s-.149.115-.348.12a.494.494 0 0 1-.219-.043l.964-5.965L23 30.505z"/><path fill="#cfd8dc" d="M29.897 18.196a.5.5 0 0 0-.701-.093L16 26s2.106 5.892 2.427 6.912c.322 1.021.58 1.045.58 1.045l.964-5.965 9.832-9.096a.499.499 0 0 0 .094-.7z"/></svg><svg viewBox="0 0 48 48" id="youtube" xmlns="http://www.w3.org/2000/svg"><path fill="#FF3D00" d="M43.2 33.9c-.4 2.1-2.1 3.7-4.2 4-3.3.5-8.8 1.1-15 1.1-6.1 0-11.6-.6-15-1.1-2.1-.3-3.8-1.9-4.2-4-.4-2.3-.8-5.7-.8-9.9s.4-7.6.8-9.9c.4-2.1 2.1-3.7 4.2-4C12.3 9.6 17.8 9 24 9c6.2 0 11.6.6 15 1.1 2.1.3 3.8 1.9 4.2 4 .4 2.3.9 5.7.9 9.9-.1 4.2-.5 7.6-.9 9.9z"/><path fill="#FFF" d="M20 31V17l12 7z"/></svg></svg>